<svg width="49" height="60" viewBox="0 0 49 60" fill="none" xmlns="http://www.w3.org/2000/svg">
<path d="M32.2249 21.2515L31.2572 47.5015M17.8661 47.5015L16.8984 21.2515M44.777 11.889C45.7335 12.0407 46.6844 12.2011 47.6353 12.3732M44.777 11.889L41.79 52.3811C41.6681 54.0297 40.9539 55.5695 39.7903 56.6927C38.6267 57.8158 37.0995 58.4395 35.514 58.439H13.6094C12.0239 58.4395 10.4966 57.8158 9.33301 56.6927C8.16942 55.5695 7.45527 54.0297 7.33336 52.3811L4.34637 11.889M44.777 11.889C41.5491 11.3801 38.3045 10.9939 35.0497 10.7311M4.34637 11.889C3.38986 12.0378 2.43895 12.1982 1.48804 12.3703M4.34637 11.889C7.57425 11.3801 10.8188 10.9939 14.0737 10.7311M35.0497 10.7311V8.05944C35.0497 4.61777 32.5046 1.74777 29.2044 1.63985C26.11 1.53672 23.0133 1.53672 19.919 1.63985C16.6187 1.74777 14.0737 4.62069 14.0737 8.05944V10.7311M35.0497 10.7311C28.0681 10.1684 21.0553 10.1684 14.0737 10.7311" stroke="black" stroke-width="1.5" stroke-linecap="round" stroke-linejoin="round"/>
</svg>
