<svg width="46" height="57" viewBox="0 0 46 57" fill="none" xmlns="http://www.w3.org/2000/svg">
<path d="M31.75 22.625C31.75 24.9456 30.8281 27.1712 29.1872 28.8122C27.5462 30.4531 25.3206 31.375 23 31.375C20.6794 31.375 18.4538 30.4531 16.8128 28.8122C15.1719 27.1712 14.25 24.9456 14.25 22.625C14.25 20.3044 15.1719 18.0788 16.8128 16.4378C18.4538 14.7969 20.6794 13.875 23 13.875C25.3206 13.875 27.5462 14.7969 29.1872 16.4378C30.8281 18.0788 31.75 20.3044 31.75 22.625Z" stroke="black" stroke-width="1.5" stroke-linecap="round" stroke-linejoin="round"/>
<path d="M44.875 22.625C44.875 43.4558 23 55.4375 23 55.4375C23 55.4375 1.125 43.4558 1.125 22.625C1.125 16.8234 3.42968 11.2594 7.53204 7.15704C11.6344 3.05468 17.1984 0.75 23 0.75C28.8016 0.75 34.3656 3.05468 38.468 7.15704C42.5703 11.2594 44.875 16.8234 44.875 22.625Z" stroke="black" stroke-width="1.5" stroke-linecap="round" stroke-linejoin="round"/>
</svg>
